<?xml version="1.0" encoding="UTF-8" standalone="no" ?>
<!DOCTYPE svg PUBLIC "-//W3C//DTD SVG 1.1//EN" "http://www.w3.org/Graphics/SVG/1.1/DTD/svg11.dtd">
<svg xmlns="http://www.w3.org/2000/svg" xmlns:xlink="http://www.w3.org/1999/xlink" version="1.1" width="18" height="18"
    viewBox="0 0 18 18" xml:space="preserve" preserveAspectRatio="none">
    <desc>Created with Fabric.js 5.3.0</desc>
    <defs>
    </defs>
    <style>
        path {
            stroke: #ddd;
            stroke-width: 1;
            stroke-dasharray: none;
            stroke-linecap: round;
            stroke-dashoffset: 0;
            stroke-linejoin: round;
            stroke-miterlimit: 4;
            fill: rgb(255, 255, 255);
            fill-opacity: 0;
            fill-rule: nonzero;
            opacity: 1;
        }
    </style>

    <g transform="matrix(1 0 0 1 4 7)" id="RUlzomGaTG3r2cwH0U2s8">
        <path vector-effect="non-scaling-stroke" transform=" translate(0, 0)"
            d="M -3 -2 L -3 0.257 C -3 1.22 -2.22 2 -1.257 2 L 0.13 2 L 3 2"
             />
    </g>
    <g transform="matrix(-1 0 0 1 14 7)" id="a4mVx5zLM8gtmesxzrH90">
        <path vector-effect="non-scaling-stroke" transform=" translate(0, 0)"
            d="M -3 -2 L -3 0.257 C -3 1.22 -2.22 2 -1.257 2 L 0.13 2 L 3 2"
             />
    </g>
    <g transform="matrix(1 0 0 -1 4 11)" id="aNv_Zqs_Ifg9bEspdQ2Bu">
        <path vector-effect="non-scaling-stroke" transform=" translate(0, 0)"
            d="M -3 -2 L -3 0.257 C -3 1.22 -2.22 2 -1.257 2 L 0.13 2 L 3 2"
             />
    </g>
    <g transform="matrix(-1 0 0 -1 14 11)" id="PmnXIcSLO2ryEjnksEYBv">
        <path vector-effect="non-scaling-stroke" transform=" translate(0, 0)"
            d="M -3 -2 L -3 0.257 C -3 1.22 -2.22 2 -1.257 2 L 0.13 2 L 3 2"
             />
    </g>
    <g transform="matrix(0 -1 1 0 7 14)" id="meaQs4dMG2KR-lKSmTVRL">
        <path vector-effect="non-scaling-stroke" transform=" translate(0, 0)"
            d="M -3 -2 L -3 0.257 C -3 1.22 -2.22 2 -1.257 2 L 0.13 2 L 3 2"
             />
    </g>
    <g transform="matrix(0 1 1 0 7 4)" id="qSQxCBBeQaVL9wJnhis1L">
        <path vector-effect="non-scaling-stroke" transform=" translate(0, 0)"
            d="M -3 -2 L -3 0.257 C -3 1.22 -2.22 2 -1.257 2 L 0.13 2 L 3 2"
             />
    </g>
    <g transform="matrix(0 -1 -1 0 11 14)" id="twAPmnPQskXayr6Ph7Mwa">
        <path vector-effect="non-scaling-stroke" transform=" translate(0, 0)"
            d="M -3 -2 L -3 0.257 C -3 1.22 -2.22 2 -1.257 2 L 0.13 2 L 3 2"
             />
    </g>
    <g transform="matrix(0 1 -1 0 11 4)" id="Kkgrn8GWpvkilHlbtNEW1">
        <path vector-effect="non-scaling-stroke" transform=" translate(0, 0)"
            d="M -3 -2 L -3 0.257 C -3 1.22 -2.22 2 -1.257 2 L 0.13 2 L 3 2"
             />
    </g>
</svg>